<?xml version="1.0" standalone="no"?>
<!DOCTYPE svg PUBLIC "-//W3C//DTD SVG 1.1//EN" "http://www.w3.org/Graphics/SVG/1.1/DTD/svg11.dtd" >
<svg xmlns="http://www.w3.org/2000/svg">
    <metadata>
        Created by FontForge 20120731 at Wed Jul 12 10:50:18 2017
        By admin
    </metadata>
    <defs>
        <font id="iconfont" horiz-adv-x="1024">
            <font-face
                    font-family="iconfont"
                    font-weight="500"
                    font-stretch="normal"
                    units-per-em="1024"
                    panose-1="2 0 6 3 0 0 0 0 0 0"
                    ascent="896"
                    descent="-128"
                    x-height="792"
                    bbox="0 -180 1195 896"
                    underline-thickness="0"
                    underline-position="0"
                    unicode-range="U+0078-E8D5"
            />
            <missing-glyph
            />
            <glyph glyph-name=".notdef"
            />
            <glyph glyph-name=".notdef"
            />
            <glyph glyph-name=".null" horiz-adv-x="0"
            />
            <glyph glyph-name="nonmarkingreturn" horiz-adv-x="341"
            />
            <glyph glyph-name="x" unicode="x" horiz-adv-x="1001"
                   d="M281 543q-27 -1 -53 -1h-83q-18 0 -36.5 -6t-32.5 -18.5t-23 -32t-9 -45.5v-76h912v41q0 16 -0.5 30t-0.5 18q0 13 -5 29t-17 29.5t-31.5 22.5t-49.5 9h-133v-97h-438v97zM955 310v-52q0 -23 0.5 -52t0.5 -58t-10.5 -47.5t-26 -30t-33 -16t-31.5 -4.5q-14 -1 -29.5 -0.5
t-29.5 0.5h-32l-45 128h-439l-44 -128h-29h-34q-20 0 -45 1q-25 0 -41 9.5t-25.5 23t-13.5 29.5t-4 30v167h911zM163 247q-12 0 -21 -8.5t-9 -21.5t9 -21.5t21 -8.5q13 0 22 8.5t9 21.5t-9 21.5t-22 8.5zM316 123q-8 -26 -14 -48q-5 -19 -10.5 -37t-7.5 -25t-3 -15t1 -14.5
t9.5 -10.5t21.5 -4h37h67h81h80h64h36q23 0 34 12t2 38q-5 13 -9.5 30.5t-9.5 34.5q-5 19 -11 39h-368zM336 498v228q0 11 2.5 23t10 21.5t20.5 15.5t34 6h188q31 0 51.5 -14.5t20.5 -52.5v-227h-327z"/>
            <glyph glyph-name="yewujindu" unicode="&#xe6b8;"
                   d="M987 -112h-951q-14 0 -24 -10t-10 -24t10 -24t24 -10h951q15 0 25 10t10 24t-10 24t-25 10v0zM223 203q49 0 84 34.5t35 83.5q0 37 -20 67l184 226q5 -2 9 -2l89 -358q-26 -16 -42 -43t-16 -59q0 -49 35 -84t84 -35t84 35t35 84q0 53 -41 89l91 200h0.5h0.5q35 0 60 24.5
t25 60t-25 60t-60.5 24.5t-60 -24.5t-24.5 -60.5q0 -32 22 -56l-91 -200q-7 1 -11 1l-89 358q33 26 33 67q0 35 -25 60t-60 25t-60 -25t-25 -60q0 -20 10 -38l-185 -226q-22 9 -46 9q-49 0 -84 -34.5t-35 -84t35 -84t84 -34.5v0zM223 203z"/>
            <glyph glyph-name="yonghu01-copy" unicode="&#xe600;"
                   d="M636 284q-3 1 -6.5 3t-8.5 8t-8 15t-2.5 24t6.5 34v0q44 45 72 111.5t28 134.5q0 103 -59 160.5t-146 57.5t-146 -57.5t-59 -160.5q0 -68 28 -134.5t73 -112.5q6 -22 6 -37t-8 -25.5t-13.5 -14.5t-10.5 -6q-63 -23 -117.5 -52t-94.5 -67.5t-40 -74.5v-28q0 -126 383 -126
q381 0 381 126v28q0 37 -40.5 75.5t-96.5 67.5t-121 51z"/>
            <glyph glyph-name="multichecked" unicode="&#xe60a;"
                   d="M865 832h-708q-39 0 -66 -27.5t-27 -65.5v-708q0 -39 27 -66t66 -27h708q39 0 66 27t27 66v708q0 38 -27 65.5t-66 27.5zM752 505l-302 -302q-11 -11 -23 1l-21 20l-135 136q-5 5 -5 12t5 13l37 37q5 5 12 5t12 -5l107 -107l252 252q10 10 23 -2l37 -37q12 -12 1 -23z
"/>
            <glyph glyph-name="fanyeyouce" unicode="&#xe627;"
                   d="M603 413l37 -37l-223 -222l-37 37zM640 376l-37 -37l-223 223l37 37zM694 812q85 -36 150.5 -101.5t100.5 -150.5q38 -87 38 -183.5t-38 -184.5q-35 -84 -100.5 -149.5t-150.5 -101.5q-88 -37 -184 -37t-184 37q-85 36 -150.5 101.5t-101.5 149.5q-37 88 -37 184.5
t37 183.5q36 85 101.5 150.5t150.5 101.5q88 37 184 37t184 -37zM510 -58q118 0 218 58t158 158t58 218t-58 218.5t-158 158.5t-218 58t-218 -58t-158 -158.5t-58 -218.5t58 -218t158 -158t218 -58v0z"/>
            <glyph glyph-name="fanyezuoce" unicode="&#xe628;"
                   d="M417 429l-37 -37l223 -222l37 37zM380 392l37 -37l223 222l-37 38zM326 828q88 37 184 37t184 -37q85 -36 150.5 -101.5t100.5 -150.5q38 -88 38 -184t-38 -184q-35 -85 -100.5 -150.5t-150.5 -101.5q-88 -37 -184 -37t-184 37q-85 36 -150.5 101.5t-101.5 150.5
q-37 88 -37 184t37 184q36 85 101.5 150.5t150.5 101.5zM510 -42q118 0 218 58t158 158t58 218t-58 218t-158 158t-218 58t-218 -58t-158 -158t-58 -218t58 -218t158 -158t218 -58v0z"/>
            <glyph glyph-name="mima" unicode="&#xe642;"
                   d="M775 474h-442q3 14 0.5 38t-1.5 54.5t1.5 62.5t11 63t26 55.5t46 40t72.5 17.5q130 5 159 -133q11 -54 5 -105l95 -1q0 7 0.5 19t-2.5 46t-10 65t-25.5 69t-45 65.5t-72.5 46.5t-104 19q-50 -3 -90.5 -17t-66 -36.5t-44.5 -51.5t-27.5 -61t-15 -64.5t-5.5 -63t0 -57
t1.5 -44.5t-0.5 -27h8q-47 0 -80 -33t-33 -80v-376q0 -47 33 -80t80 -33h526q47 0 80 33t33 80v376q0 47 -33 80t-80 33zM550 146v-86q0 -15 -11 -26.5t-27 -11.5t-27 11.5t-11 26.5v86q-37 22 -37 64q0 32 22 54t53 22t53 -22t22 -54q0 -42 -37 -64z"/>
            <glyph glyph-name="yonghu" unicode="&#xe607;"
                   d="M521 855h3h3h3h3h3h3l2 -1h3h3h3h3l3 -1h3h3h3l3 -1h3h3l3 -1h3h3l3 -1h2l3 -1h3l3 -1h3l3 -1h3l2 -1h3l3 -1l3 -1h3l3 -1l2 -1h3l3 -1l3 -1h3l2 -1l3 -1l3 -1h3l2 -1l3 -1l3 -1l3 -1l2 -1l3 -1h3l2 -1l3 -1l3 -1l3 -1l2 -1l3 -1l3 -1l2 -1l3 -1l2 -1l3 -1l3 -2l2 -1
l3 -1l2 -1l3 -1l3 -1l2 -1l3 -2l2 -1l3 -1l2 -1l3 -2l2 -1l3 -1l2 -2l3 -1l2 -1l3 -2l2 -1l3 -1l2 -2l3 -1l2 -1l2 -2l3 -1l2 -2l3 -1l2 -2l2 -1l3 -2l2 -1l2 -2l3 -2l2 -1l2 -2l3 -1l2 -2l2 -2l2 -1l3 -2l2 -1l2 -2l2 -2l3 -2l2 -1l2 -2l2 -2l2 -2l3 -1l2 -2l2 -2l2 -2
l2 -2l2 -1l2 -2l2 -2l2 -2l3 -2l2 -2l2 -2l2 -2l2 -2l2 -1l2 -2l2 -2l2 -2l2 -2l2 -2l1 -2l2 -2l2 -2l2 -2l2 -3l2 -2l2 -2l2 -2l1 -2l2 -2l2 -2l2 -2l2 -2l1 -3l2 -2l2 -2l2 -2l1 -2l2 -3l2 -2l2 -2l1 -2l2 -3l1 -2l2 -2l2 -2l1 -3l2 -2l2 -2l1 -3l2 -2l1 -2l2 -3l1 -2
l2 -2l1 -3l2 -2l1 -3l2 -2l1 -2l1 -3l2 -2l1 -3l1 -2l2 -3l1 -2l1 -3l2 -2l1 -3l1 -2l2 -3l1 -2l1 -3l1 -2l2 -3l1 -2l1 -3l1 -3l1 -2l1 -3l1 -2l2 -3l1 -3l1 -2l1 -3l1 -2l1 -3l1 -3l1 -2l1 -3l1 -3l1 -3l1 -2v-3l1 -3l1 -2l1 -3l1 -3l1 -3l1 -2v-3l1 -3l1 -3l1 -2v-3l1 -3
l1 -3v-3l1 -2l1 -3v-3l1 -3l1 -3v-3l1 -2v-3l1 -3v-3l1 -3v-3l1 -3v-2l1 -3v-3v-3l1 -3v-3v-3l1 -3v-3v-3v-3l1 -3v-3v-3v-3v-3l1 -3v-2v-3v-3v-3v-3v-3v-3v-12v-3v-3v-3v-3v-3v-3v-3l-1 -2v-3v-3v-3v-3l-1 -3v-3v-3v-3l-1 -3v-3v-3l-1 -3v-3v-3l-1 -3v-2l-1 -3v-3l-1 -3v-3
l-1 -3v-3l-1 -2v-3l-1 -3l-1 -3v-3l-1 -3l-1 -2v-3l-1 -3l-1 -3v-3l-1 -2l-1 -3l-1 -3v-3l-1 -2l-1 -3l-1 -3l-1 -3l-1 -2l-1 -3v-3l-1 -2l-1 -3l-1 -3l-1 -3l-1 -2l-1 -3l-1 -3l-1 -2l-1 -3l-1 -2l-1 -3l-2 -3l-1 -2l-1 -3l-1 -2l-1 -3l-1 -3l-1 -2l-2 -3l-1 -2l-1 -3
l-1 -2l-2 -3l-1 -2l-1 -3l-2 -2l-1 -3l-1 -2l-2 -3l-1 -2l-1 -3l-2 -2l-1 -3l-1 -2l-2 -2l-1 -3l-2 -2l-1 -3l-2 -2l-1 -2l-2 -3l-1 -2l-2 -2l-1 -3l-2 -2l-2 -2l-1 -3l-2 -2l-2 -2l-1 -2l-2 -3l-1 -2l-2 -2l-2 -2l-2 -3l-1 -2l-2 -2l-2 -2l-2 -2l-1 -3l-2 -2l-2 -2l-2 -2
l-2 -2l-1 -2l-2 -2l-2 -2l-2 -2l-2 -3l-2 -2l-2 -2l-2 -2l-1 -2l-2 -2l-2 -2l-2 -2l-2 -2l-2 -2l-2 -2l-2 -1l-2 -2l-2 -2l-2 -2l-3 -2l-2 -2l-2 -2l-2 -2l-2 -1l-2 -2l-2 -2l-2 -2l-2 -2l-3 -1l-2 -2l-2 -2l-2 -2l-2 -1l-3 -2l-2 -2l-2 -2l-2 -1l-3 -2l-2 -1l-2 -2l-2 -2
l-3 -1l-2 -2l-2 -1l-3 -2l-2 -2l-2 -1l-3 -2l-2 -1l-2 -2l-3 -1l-2 -2l-3 -1l-2 -2l-2 -1l-3 -1l-2 -2l-3 -1l-2 -1l-3 -2l-2 -1l-3 -1l-2 -2l-3 -1l-2 -1l-3 -2l-2 -1l-3 -1l-2 -1l-3 -2l-2 -1l-3 -1l-3 -1l-2 -1l-3 -1l-2 -1l-3 -2l-3 -1l-2 -1l-3 -1l-2 -1l-3 -1l-3 -1
l-2 -1l-3 -1l-3 -1l-3 -1l-2 -1h-3l-3 -1l-2 -1l-3 -1l-3 -1l-3 -1l-2 -1h-3l-3 -1l-3 -1l-2 -1h-3l-3 -1l-3 -1h-3l-2 -1l-3 -1h-3l-3 -1l-3 -1h-3l-2 -1h-3l-3 -1h-3l-3 -1h-3l-3 -1h-2l-3 -1h-3h-3l-3 -1h-3h-3l-3 -1h-3h-3h-3l-3 -1h-3h-3h-3h-3l-2 -1h-3h-3h-3h-3h-3
h-3h-3h-12h-3h-3h-3h-3h-3h-3h-2l-3 1h-3h-3h-3h-3l-3 1h-3h-3h-3l-3 1h-3h-3l-3 1h-3h-3l-2 1h-3l-3 1h-3l-3 1h-3l-3 1h-3l-2 1h-3l-3 1l-3 1h-3l-3 1l-2 1h-3l-3 1l-3 1h-3l-2 1l-3 1l-3 1h-3l-2 1l-3 1l-3 1l-3 1l-2 1l-3 1h-3l-2 1l-3 1l-3 1l-3 1l-2 1l-3 1l-3 1l-2 1
l-3 1l-2 1l-3 1l-3 2l-2 1l-3 1l-2 1l-3 1l-3 1l-2 1l-3 2l-2 1l-3 1l-2 1l-3 2l-2 1l-3 1l-2 2l-3 1l-2 1l-3 2l-2 1l-3 1l-2 2l-3 1l-2 1l-2 2l-3 1l-2 2l-3 1l-2 2l-2 1l-3 2l-2 1l-2 2l-3 2l-2 1l-2 2l-3 1l-2 2l-2 2l-2 1l-3 2l-2 1l-2 2l-2 2l-3 2l-2 1l-2 2l-2 2
l-2 2l-3 1l-2 2l-2 2l-2 2l-2 2l-2 1l-2 2l-2 2l-2 2l-3 2l-2 2l-2 2l-2 2l-2 1l-2 2l-2 2l-2 2l-2 2l-2 2l-1 2l-2 2l-2 2l-2 2l-2 2l-2 3l-2 2l-2 2l-2 2l-1 2l-2 2l-2 2l-2 2l-2 2l-1 3l-2 2l-2 2l-2 2l-1 2l-2 3l-2 2l-2 2l-1 2l-2 3l-1 2l-2 2l-2 2l-1 3l-2 2l-1 2
l-2 3l-2 2l-1 2l-2 3l-1 2l-2 2l-1 3l-2 2l-1 3l-1 2l-2 2l-1 3l-2 2l-1 3l-1 2l-2 3l-1 2l-1 3l-2 2l-1 3l-1 2l-2 3l-1 2l-1 3l-1 2l-2 3l-1 2l-1 3l-1 3l-1 2l-1 3l-1 2l-2 3l-1 3l-1 2l-1 3l-1 2l-1 3l-1 3l-1 2l-1 3l-1 3l-1 3l-1 2v3l-1 3l-1 2l-1 3l-1 3l-1 3l-1 2v3
l-1 3l-1 3l-1 2v3l-1 3l-1 3v3l-1 2l-1 3v3l-1 3l-1 3v3l-1 2v3l-1 3v3l-1 3v3l-1 3v2l-1 3v3v3l-1 3v3v3l-1 3v3v3v3l-1 3v3v3v3v3l-1 2v3v3v3v3v3v3v3v12v3v3v3v3v3v3v2l1 3v3v3v3v3l1 3v3v3v3l1 3v3v3l1 3v3v3l1 3v2l1 3v3l1 3v3l1 3v3l1 2v3l1 3l1 3v3l1 3l1 2v3l1 3
l1 3v3l1 2l1 3l1 3v3l1 2l1 3l1 3l1 3l1 2l1 3v3l1 2l1 3l1 3l1 3l1 2l1 3l1 3l1 2l1 3l1 2l1 3l2 3l1 2l1 3l1 2l1 3l1 3l1 2l2 3l1 2l1 3l1 2l2 3l1 2l1 3l2 2l1 3l1 2l2 3l1 2l1 3l2 2l1 3l2 2l1 2l1 3l2 2l1 3l2 2l1 2l2 3l1 2l2 2l2 3l1 2l2 2l1 3l2 2l2 2l1 2l2 3l1 2
l2 2l2 2l2 3l1 2l2 2l2 2l2 2l1 3l2 2l2 2l2 2l2 2l1 2l2 2l2 2l2 2l2 3l2 2l2 2l2 2l2 2l1 2l2 2l2 2l2 2l2 2l2 1l2 2l2 2l2 2l2 2l3 2l2 2l2 2l2 2l2 1l2 2l2 2l2 2l2 2l3 1l2 2l2 2l2 2l2 1l3 2l2 2l2 2l2 1l3 2l2 1l2 2l2 2l3 1l2 2l2 1l3 2l2 2l2 1l3 2l2 1l2 2l3 1
l2 2l3 1l2 2l2 1l3 1l2 2l3 1l2 1l3 2l2 1l3 1l2 2l3 1l2 1l3 2l2 1l3 1l2 1l3 2l2 1l3 1l3 1l2 1l3 1l2 1l3 2l3 1l2 1l3 1l2 1l3 1l3 1l2 1l3 1l3 1l3 1l2 1h3l3 1l2 1l3 1l3 1l3 1l2 1h3l3 1l3 1l2 1h3l3 1l3 1h3l2 1l3 1h3l3 1l3 1h3l2 1h3l3 1h3l3 1h3l3 1h3l2 1h3h3
l3 1h3h3l3 1h3h3h3l3 1h3h3h3h3l3 1h2h3h3h3h3h3h3h12h3zM507 822h-3h-3h-3h-3h-2l-3 -1h-3h-3h-3h-2h-3h-3l-3 -1h-2h-3h-3l-2 -1h-3h-3l-3 -1h-2h-3l-3 -1h-2l-3 -1h-3h-2l-3 -1h-3l-2 -1h-3l-3 -1l-2 -1h-3l-3 -1h-2l-3 -1l-2 -1h-3l-3 -1h-2l-3 -1l-2 -1l-3 -1h-2l-3 -1
l-2 -1l-3 -1h-3l-2 -1l-3 -1l-2 -1l-3 -1l-2 -1l-3 -1h-2l-3 -1l-2 -1l-2 -1l-3 -1l-2 -1l-3 -1l-2 -1l-3 -1l-2 -1l-3 -1l-2 -1l-2 -1l-3 -1l-2 -2l-2 -1l-3 -1l-2 -1l-3 -1l-2 -1l-2 -2l-3 -1l-2 -1l-2 -1l-2 -1l-3 -2l-2 -1l-2 -1l-3 -1l-2 -2l-2 -1l-2 -1l-3 -2l-2 -1
l-2 -2l-2 -1l-2 -1l-3 -2l-2 -1l-2 -2l-2 -1l-2 -2l-2 -1l-3 -1l-2 -2l-2 -1l-2 -2l-2 -2l-2 -1l-2 -2l-2 -1l-2 -2l-2 -1l-2 -2l-2 -2l-2 -1l-2 -2l-2 -2l-2 -1l-2 -2l-2 -2l-2 -1l-2 -2l-2 -2l-2 -2l-2 -1l-2 -2l-2 -2l-2 -2l-2 -1l-1 -2l-2 -2l-2 -2l-2 -2l-2 -2l-2 -1
l-1 -2l-2 -2l-2 -2l-2 -2l-1 -2l-2 -2l-2 -2l-2 -2l-1 -2l-2 -2l-2 -2l-1 -2l-2 -2l-2 -2l-1 -2l-2 -2l-2 -2l-1 -2l-2 -2l-1 -2l-2 -2l-1 -2l-2 -2l-1 -2l-2 -2l-2 -2l-1 -3l-1 -2l-2 -2l-1 -2l-2 -2l-1 -2l-2 -3l-1 -2l-1 -2l-2 -2l-1 -2l-2 -3l-1 -2l-1 -2l-2 -2l-1 -3
l-1 -2l-1 -2l-2 -3l-1 -2l-1 -2l-1 -2l-1 -3l-2 -2l-1 -2l-1 -3l-1 -2l-1 -3l-1 -2l-2 -2l-1 -3l-1 -2l-1 -2l-1 -3l-1 -2l-1 -3l-1 -2l-1 -3l-1 -2l-1 -3l-1 -2l-1 -2l-1 -3v-2l-1 -3l-1 -2l-1 -3l-1 -2l-1 -3l-1 -2v-3l-1 -3l-1 -2l-1 -3v-2l-1 -3l-1 -2v-3l-1 -2l-1 -3
v-3l-1 -2l-1 -3v-2l-1 -3v-3l-1 -2l-1 -3v-3l-1 -2v-3v-3l-1 -2v-3l-1 -3v-2l-1 -3v-3v-2l-1 -3v-3v-3l-1 -2v-3v-3v-2l-1 -3v-3v-3v-2v-3v-3v-3l-1 -3v-2v-3v-3v-3v-3v-10v-3v-3v-3v-3v-2l1 -3v-3v-3v-3v-2v-3v-3l1 -3v-2v-3v-3l1 -2v-3v-3l1 -3v-2v-3l1 -3v-2l1 -3v-3
l1 -2v-3v-3l1 -2v-3l1 -3l1 -2v-3l1 -3v-2l1 -3l1 -2v-3l1 -3l1 -2v-3l1 -2l1 -3v-2l1 -3l1 -2l1 -3v-3l1 -2l1 -3l1 -2l1 -3l1 -2l1 -3v-2l1 -3l1 -2l1 -2l1 -3l1 -2l1 -3l1 -2l1 -3l1 -2l1 -3l1 -2l1 -2l1 -3l2 -2l1 -2l1 -3l1 -2l1 -3l1 -2l2 -2l1 -3l1 -2l1 -2l1 -2
l2 -3l1 -2l1 -2l1 -3l2 -2l1 -2l1 -2l2 -3l1 -2l2 -2l1 -2l1 -2l2 -3l1 -2l2 -2l1 -2l2 -2l1 -2l1 -3l2 -2l2 -2l1 -2l2 -2l1 -2l2 -2l1 -2l2 -2l1 -2l2 -2l2 -2l1 -2l2 -2l2 -2l1 -2l2 -2l2 -2l1 -2l2 -2l2 -2l2 -2l1 -2l2 -2l2 -2l2 -2l1 -2l2 -1l2 -2l2 -2l2 -2l2 -2
l1 -2l2 -1l2 -2l2 -2l2 -2l2 -1l2 -2l2 -2l2 -2l2 -1l2 -2l2 -2l2 -1l2 -2l2 -2l2 -1l2 -2l2 -2l2 -1l2 -2l2 -1l2 -2l2 -1l2 -2l2 -2l2 -1l2 -2l3 -1l2 -1l2 -2l2 -1l2 -2l2 -1l3 -2l2 -1l2 -1l2 -2l2 -1l3 -2l2 -1l2 -1l2 -2l3 -1l2 -1l2 -1l3 -2l2 -1l2 -1l2 -1l3 -1
l2 -2l2 -1l3 -1l2 -1l3 -1l2 -1l2 -2l3 -1l2 -1l2 -1l3 -1l2 -1l3 -1l2 -1l3 -1l2 -1l3 -1l2 -1l2 -1l3 -1h2l3 -1l2 -1l3 -1l2 -1l3 -1l2 -1h3l3 -1l2 -1l3 -1h2l3 -1l2 -1l3 -1h2l3 -1h3l2 -1l3 -1h2l3 -1h3l2 -1l3 -1h3l2 -1h3l3 -1h2h3l3 -1h2l3 -1h3h2l3 -1h3h3l2 -1h3
h3h2l3 -1h3h3h2h3h3h3l3 -1h2h3h3h3h3h10h3h3h3h3h2l3 1h3h3h3h2h3h3l3 1h2h3h3l2 1h3h3l3 1h2h3l3 1h2l3 1h3h2l3 1h3l2 1h3l3 1l2 1h3l3 1h2l3 1l2 1h3l3 1h2l3 1l2 1l3 1h2l3 1l2 1l3 1h3l2 1l3 1l2 1l3 1l2 1l3 1h2l3 1l2 1l3 1l2 1l2 1l3 1l2 1l3 1l2 1l3 1l2 1l2 1
l3 1l2 2l2 1l3 1l2 1l3 1l2 1l2 2l3 1l2 1l2 1l2 1l3 2l2 1l2 1l3 1l2 2l2 1l2 1l3 2l2 1l2 2l2 1l2 1l3 2l2 1l2 2l2 1l2 2l2 1l3 1l2 2l2 1l2 2l2 2l2 1l2 2l2 1l2 2l2 1l2 2l2 2l2 1l2 2l2 2l2 1l2 2l2 2l2 1l2 2l2 2l2 2l2 1l2 2l2 2l2 2l2 1l1 2l2 2l2 2l2 2l2 2l2 1
l1 2l2 2l2 2l2 2l1 2l2 2l2 2l2 2l1 2l2 2l2 2l1 2l2 2l2 2l1 2l2 2l2 2l1 2l2 2l1 2l2 2l1 2l2 2l2 2l1 2l2 2l1 3l1 2l2 2l1 2l2 2l1 2l2 3l1 2l1 2l2 2l1 2l2 3l1 2l1 2l2 2l1 3l1 2l1 2l2 3l1 2l1 2l1 2l1 3l2 2l1 2l1 3l1 2l1 3l1 2l2 2l1 3l1 2l1 2l1 3l1 2l1 3l1 2
l1 3l1 2l1 3l1 2l1 2l1 3v2l1 3l1 2l1 3l1 2l1 3l1 2v3l1 3l1 2l1 3v2l1 3l1 2l1 3v2l1 3v3l1 2l1 3v2l1 3v3l1 2l1 3v3l1 2v3l1 3v2v3l1 3v2l1 3v3v2l1 3v3v3l1 2v3v3v2l1 3v3v3v2v3v3v3l1 3v2v3v3v3v3v10v3v3v3v3v2l-1 3v3v3v3v2v3v3l-1 3v2v3v3l-1 2v3v3l-1 3v2v3l-1 3v2
l-1 3v3v2l-1 3v3l-1 2v3l-1 3l-1 2v3l-1 3v2l-1 3l-1 2v3l-1 3v2l-1 3l-1 2l-1 3v2l-1 3l-1 2l-1 3v3l-1 2l-1 3l-1 2l-1 3l-1 2l-1 3v2l-1 3l-1 2l-1 2l-1 3l-1 2l-1 3l-1 2l-1 3l-1 2l-1 3l-1 2l-1 2l-1 3l-2 2l-1 2l-1 3l-1 2l-1 3l-1 2l-2 2l-1 3l-1 2l-1 2l-1 2l-2 3
l-1 2l-1 2l-1 3l-2 2l-1 2l-1 2l-2 3l-1 2l-2 2l-1 2l-1 2l-2 3l-1 2l-2 2l-1 2l-2 2l-1 2l-1 3l-2 2l-1 2l-2 2l-2 2l-1 2l-2 2l-1 2l-2 2l-1 2l-2 2l-2 2l-1 2l-2 2l-2 2l-1 2l-2 2l-2 2l-1 2l-2 2l-2 2l-2 2l-1 2l-2 2l-2 2l-2 2l-1 2l-2 1l-2 2l-2 2l-2 2l-2 2l-1 2
l-2 1l-2 2l-2 2l-2 2l-2 1l-2 2l-2 2l-2 2l-2 1l-2 2l-2 2l-2 1l-2 2l-2 2l-2 1l-2 2l-2 2l-2 1l-2 2l-2 1l-2 2l-2 1l-2 2l-2 2l-2 1l-2 2l-3 1l-2 1l-2 2l-2 1l-2 2l-2 1l-3 2l-2 1l-2 1l-2 2l-2 1l-3 2l-2 1l-2 1l-2 2l-3 1l-2 1l-2 1l-3 2l-2 1l-2 1l-2 1l-3 1l-2 2
l-2 1l-3 1l-2 1l-3 1l-2 1l-2 2l-3 1l-2 1l-2 1l-3 1l-2 1l-3 1l-2 1l-3 1l-2 1l-2 1l-3 1l-2 1l-3 1h-2l-3 1l-2 1l-3 1l-2 1l-3 1l-2 1h-3l-3 1l-2 1l-3 1h-2l-3 1l-2 1l-3 1h-2l-3 1h-3l-2 1l-3 1h-2l-3 1h-3l-2 1l-3 1h-3l-2 1h-3l-3 1h-2h-3l-3 1h-2l-3 1h-3h-2l-3 1
h-3h-3l-2 1h-3h-3h-2l-3 1h-3h-3h-2h-3h-3h-3l-3 1h-2h-3h-3h-3h-3h-10zM511 89q-98 0 -167.5 38t-69.5 91.5t69.5 91t167.5 37.5t167.5 -37.5t69.5 -91t-69.5 -91.5t-167.5 -38zM508.5 361q-67.5 0 -115.5 48t-48 116t48 116.5t115.5 48.5t115.5 -48.5t48 -116.5t-48 -116
t-115.5 -48z"/>
            <glyph glyph-name="tubiao" unicode="&#xe73e;"
                   d="M512 768q-159 0 -271.5 -112.5t-112.5 -271.5t112.5 -271.5t271.5 -112.5t271.5 112.5t112.5 271.5h-384v384zM826 320q-23 -110 -111 -183t-203 -73q-87 0 -160.5 43t-116.5 116.5t-43 160.5q0 115 73 203t183 111v-314v-64h64h314zM602 768v-294h294q0 122 -86 208
t-208 86zM666 695q56 -16 98.5 -58.5t58.5 -98.5h-157v157z"/>
            <glyph glyph-name="xaioxi" unicode="&#xe6c8;"
                   d="M415 -31q0 -40 28.5 -68.5t68.5 -28.5t68.5 28.5t28.5 68.5h-194zM847 173v284q0 118 -72.5 209t-184.5 117v35q0 33 -23 55.5t-55 22.5t-55 -22.5t-23 -55.5v-35q-112 -26 -184.5 -117t-72.5 -209v-284l-104 -103v-52h878v52z"/>
            <glyph glyph-name="iconzhuangtaituichu" unicode="&#xe647;"
                   d="M459 848q0 18 13 30.5t31 12.5t31 -12.5t13 -30.5v-353q0 -18 -12.5 -31t-31 -13t-31.5 13t-13 31v353zM41 341q0 -94 37.5 -179.5t100.5 -147.5t150 -98.5t183 -36.5t183 36.5t150 98.5t100.5 147.5t37.5 179.5q0 132 -70.5 243.5t-188.5 170.5q-16 8 -33.5 2t-25.5 -22
t-2.5 -33.5t22.5 -25.5q96 -48 153 -138t57 -197q0 -101 -51.5 -187.5t-139.5 -136.5t-192 -50t-192 50t-139.5 136.5t-51.5 187.5q0 107 57 197t153 138q17 8 22.5 25.5t-2.5 33.5t-25.5 22t-33.5 -2q-118 -59 -188.5 -170.5t-70.5 -243.5z"/>
            <glyph glyph-name="rili" unicode="&#xe609;"
                   d="M556 418q-16 0 -26.5 -8.5t-15 -19.5t-17 -21.5t-33.5 -14.5l-18 -5q-15 -3 -19 -4t-10 -3.5t-6.5 -7t-0.5 -12.5q0 -27 24 -27h73v-176q0 -21 7.5 -31.5t29.5 -10.5q36 0 36 42v267q0 32 -24 32v0zM336 623h11q13 0 20.5 7t7.5 18v121q0 11 -7.5 18t-20.5 7h-11
q-13 0 -21 -7t-8 -18v-126q0 -8 8 -14t21 -6zM677 623h11q13 0 21 7t8 18v121q0 11 -8 18t-21 7h-11q-13 0 -20.5 -7t-7.5 -18v-126q0 -7 9.5 -13.5t18.5 -6.5zM834 28h-650q-25 0 -43 18t-18 42v421h778v-416q0 -28 -19 -46.5t-48 -18.5zM834 725h-71v-48h71q25 0 43 -17.5
t18 -42.5v-54h-777v54q0 25 18 42.5t43 17.5h71v48h-66q-49 0 -82.5 -34t-33.5 -79v-524q0 -46 33.5 -80t82.5 -34h656q46 0 81 33t35 81v524q-5 46 -39 79.5t-83 33.5zM410 657h204v68h-204v-68z"/>
            <glyph glyph-name="xiaoxi" unicode="&#xe8d5;" horiz-adv-x="1243"
                   d="M1036 811q30 0 51.5 -22t21.5 -52v-521q0 -31 -21.5 -52.5t-51.5 -21.5h-182q-36 0 -61 -25t-25 -60v-21l-106 87q-23 19 -54 19v0h-448v0q-30 0 -52 21.5t-22 52.5v521q0 30 22 52t52 22h875h1zM1036 896h-876q-66 0 -112.5 -46.5t-46.5 -112.5v-521q0 -66 46.5 -112.5
t112.5 -46.5h448q186 -151 211 -171q17 -13 26 -13t9 13v171h182v0q65 0 112 46.5t47 112.5v521v0q0 66 -47 112.5t-112 46.5zM918 469.5q0 -26.5 -19 -45t-45.5 -18.5t-45 18.5t-18.5 45t18.5 45.5t45 19t45.5 -19t19 -45.5zM662 469.5q0 -26.5 -19 -45t-45.5 -18.5
t-45 18.5t-18.5 45t18.5 45.5t45 19t45.5 -19t19 -45.5zM406 469.5q0 -26.5 -18.5 -45t-45 -18.5t-45.5 18.5t-19 45t19 45.5t45.5 19t45 -19t18.5 -45.5z"/>
            <glyph glyph-name="shouqi" unicode="&#xe65a;"
                   d="M893 -110h-765q-45 0 -77 32t-32 77v765q0 45 32 77t77 32h765q45 0 77 -32t32 -77v-765q0 -45 -32 -77t-77 -32v0zM948 709q0 45 -32 77t-77 32h-656q-45 0 -77 -32t-32 -77v-656q0 -45 32 -77t77 -32h656q45 0 77 32t32 77v656v0v0zM788 381q0 12 -8 20t-19 8h-497
q-11 0 -19 -8t-8 -20v0q0 -11 8 -19t19 -8h497q11 0 19 8t8 19v0z"/>
            <glyph glyph-name="xiazai" unicode="&#xe619;"
                   d="M826 11h-646q-14 0 -24 9.5t-10 23.5v351q0 14 10 23.5t24 9.5t24 -10t10 -23v-317h578v317q0 14 10 23.5t24 9.5t23.5 -10t9.5 -23v-351q1 -14 -9 -23.5t-24 -9.5zM503 298q-14 0 -24 10t-10 24v452q0 14 10 24t24 10t24 -10t10 -24v-452q0 -14 -10 -24t-24 -10z
M697 413l-195 -198l-193 198h388z"/>
            <glyph glyph-name="zhankai" unicode="&#xe60e;"
                   d="M1024 677q0 -30 -21.5 -52t-52.5 -22h-876q-31 0 -52.5 21.5t-21.5 52.5q0 30 21.5 51.5t52.5 21.5h878q30 0 51 -21.5t21 -51.5zM1024 384q0 -30 -21.5 -52t-52.5 -22h-876q-31 0 -52.5 22t-21.5 52t21.5 52t52.5 22h878q30 0 51 -22t21 -52zM1024 91q0 -30 -21.5 -51.5
t-52.5 -21.5h-876q-31 0 -52.5 21t-21.5 52q0 30 21.5 52t52.5 22h878q30 0 51 -22t21 -52z"/>
            <glyph glyph-name="shouqi1" unicode="&#xe60f;"
                   d="M1024 677q0 -30 -21.5 -52t-52.5 -22h-876q-31 0 -52.5 21.5t-21.5 52.5q0 30 21.5 51.5t52.5 21.5h878q30 0 51 -21.5t21 -51.5zM731 384q0 -30 -21 -52t-52 -22h-584q-31 0 -52.5 22t-21.5 52t21.5 52t52.5 22h585q30 0 51 -22t21 -52zM512 91q0 -30 -21.5 -51.5
t-52.5 -21.5h-364q-31 0 -52.5 21t-21.5 52q0 30 21.5 52t52.5 22h366q30 0 51 -22t21 -52z"/>
            <glyph glyph-name="duoxuan" unicode="&#xe71a;"
                   d="M812 -62h-601q-60 0 -103 42.5t-43 103.5v601q0 60 43 103t103 43h601q61 0 103.5 -43t42.5 -103v-601q0 -61 -42.5 -103.5t-103.5 -42.5zM211 779q-39 0 -66.5 -27.5t-27.5 -66.5v-601q0 -39 27.5 -66.5t66.5 -27.5h601q39 0 66.5 27.5t27.5 66.5v601q0 39 -27.5 66.5
t-66.5 27.5h-601z"/>
            <glyph glyph-name="huankuandan" unicode="&#xe61a;"
                   d="M864 768h-704q-53 0 -90.5 -37.5t-37.5 -90.5v-512q0 -53 37.5 -90.5t90.5 -37.5h704q53 0 90.5 37.5t37.5 90.5v512q0 53 -37.5 90.5t-90.5 37.5zM928 128q0 -26 -19 -45t-45 -19h-704q-26 0 -45 19t-19 45v512q0 26 19 45t45 19h704q26 0 45 -19t19 -45v-512zM832 416
h-192q-13 0 -22.5 -9.5t-9.5 -22.5t9.5 -22.5t22.5 -9.5h192q13 0 22.5 9.5t9.5 22.5t-9.5 22.5t-22.5 9.5zM832 288h-192q-13 0 -22.5 -9.5t-9.5 -22.5t9.5 -22.5t22.5 -9.5h192q13 0 22.5 9.5t9.5 22.5t-9.5 22.5t-22.5 9.5zM832 544h-192q-13 0 -22.5 -9.5t-9.5 -22.5
t9.5 -22.5t22.5 -9.5h192q13 0 22.5 9.5t9.5 22.5t-9.5 22.5t-22.5 9.5zM489 375l-105 -105v306q0 13 -9.5 22.5t-22.5 9.5t-22.5 -9.5t-9.5 -22.5v-306l-105 105q-9 9 -22 9q-14 0 -23.5 -9.5t-9.5 -23.5q0 -13 9 -22l160 -160q9 -9 23 -9v0v0q14 0 23 9l160 160q8 9 8 22
t-9.5 22.5t-22.5 9.5t-22 -8z"/>
            <glyph glyph-name="xitongguanli" unicode="&#xe6ab;" horiz-adv-x="1025"
                   d="M508 188q-85 0 -145.5 60t-60.5 144.5t60.5 144.5t145.5 60t145 -60t60 -144.5t-60 -144.5t-145 -60zM507.5 528q-56.5 0 -96.5 -39.5t-40 -96t40 -96.5t96.5 -40t96.5 40t40 96.5t-40 96t-96.5 39.5zM374 -104h-1q-4 0 -9 1v1q-117 35 -205 118l-1 1v0l-2 2v0
q0 1 -1 1.5t-1 1.5v0q-1 1 -2 3v0q0 1 -1 2l-1 1v3h-1v3v0q-1 2 -1 3v0v3v0v4v0v3q1 2 1 3v0q0 1 1 3v0v1q1 1 1 2l1 1l1 2v1v0h1q19 30 19 65q0 48 -34.5 82.5t-82.5 34.5h-7v0h-1.5h-0.5h-2h-1v0h-2v3v-3v0h-1h-1q0 1 -0.5 1h-0.5h-1h-1v0v0l-1 1v0h-0.5h-0.5v0h-1v0l-1 1
h-1l-1 1v0v0h-1l-1 1v0l-1 1h-1v1h-1l-1 1v0v0l-1 1h-1v1l-1 1v0q-1 0 -1 1l2 2l-2 -2v0q-1 0 -1 1v1h-1v0.5t-0.5 0.5t-0.5 1v0v0q-1 0 -1 0.5v0.5v1h-1v1v1l-0.5 0.5l-0.5 0.5v0v0v1v1h-1v0.5v0.5v0v2v0l-1 1q-13 57 -13 116t13 116l1 1v1v0v1.5v0.5h1v1v1l0.5 0.5
l0.5 0.5v0v1v0l1 1v1v0l1 1v1h1v1l1 1v0.5v0.5h1v0.5v0.5h1q0 1 1 1v0v0v1v0h1v1h1v0l1 1v0l1 1h1v0.5v0.5h1h1v1h0.5h0.5h1l1 1v0h0.5t0.5 1h1h0.5h0.5v0h1l1 1h1h1h1h1v1h1h1h0.5h0.5h4h6q49 0 83.5 34t34.5 83q0 35 -20 65v0v1l-2 2v0q-1 2 -1 3v0q-1 2 -1 3v2l-1 2v1v3
v0v3v0v3v1q0 1 1 3v0q0 2 1 3v0q0 2 1 3v0q0 1 1 3v0q1 2 2 3v0q1 1 2 3v0q1 1 3 2v1q89 84 206 118v1q4 1 8 1h1q6 0 10 -2h1h1v0v0l1 -1h0.5h0.5v0h0.5h0.5v-1q8 -3 13 -9q2 -4 3 -7h1v0q15 -31 43.5 -49t62.5 -18t63 18.5t44 48.5q2 5 6 9t9 7v0v0l1 1h1h1v0q0 1 0.5 1
h0.5v0v0q6 2 12 2h1q4 0 8 -2h1v0q117 -35 206 -120h2v-1q1 -1 1 -2h1q0 -1 1 -3v0l2 -2v-1q1 0 1 -2l1 -1q0 -1 1 -2v-1q0 -2 1 -3v0v-1v-2v0q1 -7 -1 -13v0v0q0 -1 -1 -3v0q0 -2 -1 -3v-1l-2 -2v0v0v-1q-19 -29 -19 -64q0 -48 34.5 -82.5t83.5 -34.5h5h1h4v0h1h1h0.5h0.5
v0q1 0 1 -1h1v0h1h0.5h0.5v0l1 -1h1h0.5h0.5v0v-1h1h1v0q0 -1 1 -1v0l1 -1h1l1 -1h0.5h0.5v-1h0.5h0.5v-1q4 -3 7 -7v0v0v-0.5t1 -0.5v0l1 -1v-0.5v-0.5v0q0 -1 0.5 -1h0.5v-1v0v-0.5v-0.5v0q2 -3 2 -5q13 -57 13 -116.5t-13 -116.5q-1 -3 -2 -5v0v0v-1v-1v0h-1v-1v0l-1 -1
v0v-1h-1v-1v-1h-1v-1v0q-2 -2 -4 -3l-1 -2v0v0v0h-0.5t-0.5 -0.5v-0.5v0q-1 0 -1 -1h-1v0l-1 -1v0h-1v0q-3 -2 -7 -4v0h-1h-1v0l-1 -1v0v0h-0.5h-0.5v0h-1h-1v3v-3h-0.5h-0.5v0h-2v0h-0.5h-0.5h-2h-5q-49 0 -83.5 -34.5t-34.5 -83.5q0 -34 19 -63v-1v0v0l2 -3v0q1 -2 1 -3v0
q1 -2 1 -3v0q0 -1 1 -3v0v-7v0v-3v0v-2v-1l-1 -1v-1v-1v-1q-1 -1 -1 -2l-1 -1q0 -2 -1 -3v0l-2 -2v-1l-2 -2v0q0 -1 -2 -2v-1v0q-90 -85 -207 -120q-5 -2 -10 -2h-2h-1.5h-0.5v0q-3 1 -4 1h-1h-1v1h-2v0h-1q0 1 -0.5 1h-0.5v0h-0.5h-0.5v1q-7 3 -12 9q-3 3 -4 7
q-15 31 -44 49t-63 18t-63 -18t-43 -49v0l-1 -1l-4 -6q-5 -6 -12 -9v0q0 -1 -0.5 -1h-0.5h-1v0v0l-2 3l2 -4h-1v0h-1l-1 -1q-5 -1 -10 -1zM512 51q46 0 86.5 -21t66.5 -59q75 28 135 79q-16 36 -16 75q0 72 48 125q47 52 117 60q6 37 6 75.5t-6 75.5q-70 8 -117 60
q-48 53 -48 125q0 39 16 75q-60 51 -135 79q-26 -38 -66.5 -59t-86.5 -21t-86.5 21t-66.5 59q-74 -27 -134 -78q17 -36 17 -76q0 -73 -49 -126q-48 -52 -118 -59q-6 -37 -6 -75t6 -76q70 -7 118 -59q49 -53 49 -126q0 -40 -17 -76q60 -51 134 -78q26 38 66.5 59t86.5 21z
"/>
            <glyph glyph-name="yanzhengma" unicode="&#xe606;"
                   d="M512 832q-82 -63 -169 -95.5t-212 -32.5v-331q0 -59 34.5 -135t87.5 -143t123.5 -113t135.5 -46t135.5 46t123.5 113t87.5 143t34.5 135v331q-126 0 -212.5 32.5t-168.5 95.5zM769 510l-273 -272q-1 -2 -3 -2t-4 2l-176 176q-1 1 -1 3t1 4l35 34q1 2 3 2t4 -2l138 -138
l235 235q1 1 3 1t4 -1l34 -35q1 -1 1 -3t-1 -4z"/>
            <glyph glyph-name="shuaxin" unicode="&#xe614;"
                   d="M864 384v0q0 96 -47 177t-128 128t-177 47q-69 0 -148.5 -37.5t-123.5 -91.5q-10 -10 -24 -10q-13 0 -22.5 9t-9.5 23q0 10 7 19q51 63 145.5 107.5t175.5 44.5q113 0 209 -55.5t151.5 -151.5t55.5 -209v0h96l-128 -128l-128 128h96zM160 384v0q0 -96 47 -177t128 -128
t177 -47q70 0 150 38.5t124 92.5q10 13 26 13q13 0 22.5 -9.5t9.5 -22.5q0 -12 -8 -21q-52 -64 -147 -109.5t-177 -45.5q-113 0 -209 55.5t-151.5 151.5t-55.5 209h-96l128 128l128 -128h-96z"/>
            <glyph glyph-name="fanhui" unicode="&#xe61f;"
                   d="M794 319h-286v-63h286v63zM953 65h63v127q0 8 -1.5 19.5t-10 44.5t-22.5 63t-43.5 66.5t-67.5 62.5t-99.5 43.5t-136.5 17.5h-127v-63h127q63 0 114 -14t83 -34.5t56 -49t36 -52.5t19 -50.5t8 -36.5t2 -18v-126zM477 69v186h31v64h-95v-131l-292 194l292 195v-131h95v63
h-32v186l-469 -313z"/>
            <glyph glyph-name="zhankai1" unicode="&#xe68f;"
                   d="M883 -119h-746v0q-44 0 -75.5 31t-31.5 75v0v747q0 44 31.5 75.5t75.5 31.5h746q44 0 75.5 -31.5t31.5 -75.5v-747q0 -44 -31.5 -75t-75.5 -31v0zM937 681q0 44 -31.5 75t-75.5 31h-640q-44 0 -75.5 -31t-31.5 -75v-640q0 -44 31.5 -75.5t75.5 -31.5h640v0
q44 0 75.5 31.5t31.5 75.5v640v0v0zM750 334h-213v-213q0 -11 -8 -19t-19 -8t-19 8t-8 19v213h-213q-11 0 -19 8t-8 19t8 18.5t19 7.5h213v214q0 11 8 18.5t19 7.5t19 -7.5t8 -18.5v-214h213q11 0 19 -7.5t8 -18.5t-8 -19t-19 -8z"/>
            <glyph glyph-name="cha" unicode="&#xe617;"
                   d="M512 896q-104 0 -199 -40.5t-163.5 -109t-109 -163.5t-40.5 -199t40.5 -199t109 -163.5t163.5 -109t199 -40.5t199 40.5t163.5 109t109 163.5t40.5 199t-40.5 199t-109 163.5t-163.5 109t-199 40.5zM729 553l-169 -169l169 -169q10 -10 10 -24t-10 -24t-24 -10t-24 10
l-169 169l-169 -169q-10 -10 -24 -10t-24 10t-10 24t10 24l169 169l-169 169q-10 10 -10 24t10 24t24 10t24 -10l169 -169l169 169q10 10 24 10t24 -10t10 -24t-10 -24z"/>
            <glyph glyph-name="shuru" unicode="&#xe61b;"
                   d="M905 650l-140 135l-385 -381l139 -136zM309 200l178 43l-128 129zM990 842l-28 29q-24 24 -55.5 24t-55.5 -24l-54 -50l140 -139l53 53q22 22 22 54t-22 53zM826 -17q0 -8 -6.5 -15t-14.5 -7h-689q-8 0 -14.5 7t-6.5 15v763q0 8 6.5 15t14.5 7h492q19 0 31 12t12 30.5
t-12 30.5t-31 12h-492q-43 0 -75 -31t-32 -76v-767q0 -43 31 -75t76 -32h692q44 0 75.5 31t31.5 76v471q0 19 -12 31t-30.5 12t-30.5 -12t-12 -31v-467h-4z"/>
        </font>
</defs>
</svg>
